<?xml version="1.0" encoding="UTF-8" standalone="no"?>
<svg width="96" height="32" viewBox="0 0 96 32" xmlns="http://www.w3.org/2000/svg">
  <!-- Death animation sequence -->
  
  <!-- Frame 1: Ghost starting to fade -->
  <g id="death-frame1" transform="translate(0, 0)">
    <path d="M16,4 C10.5,4 6,8.5 6,14 L6,24 C6,24 8,22 10,24 C12,26 14,24 16,26 C18,24 20,26 22,24 C24,22 26,24 26,24 L26,14 C26,8.5 21.5,4 16,4 Z" 
          fill="#4169E1" fill-opacity="0.8" stroke="#000" stroke-width="0.5" stroke-opacity="0.8"/>
    <ellipse cx="12" cy="12" rx="3" ry="4" fill="white" fill-opacity="0.8"/>
    <ellipse cx="12" cy="12" rx="1.5" ry="2" fill="#333" fill-opacity="0.8"/>
    <ellipse cx="20" cy="12" rx="3" ry="4" fill="white" fill-opacity="0.8"/>
    <ellipse cx="20" cy="12" rx="1.5" ry="2" fill="#333" fill-opacity="0.8"/>
  </g>
  
  <!-- Frame 2: Ghost more transparent -->
  <g id="death-frame2" transform="translate(32, 0)">
    <path d="M16,4 C10.5,4 6,8.5 6,14 L6,24 C6,24 8,22 10,24 C12,26 14,24 16,26 C18,24 20,26 22,24 C24,22 26,24 26,24 L26,14 C26,8.5 21.5,4 16,4 Z" 
          fill="#4169E1" fill-opacity="0.4" stroke="#000" stroke-width="0.5" stroke-opacity="0.4"/>
    <ellipse cx="12" cy="12" rx="3" ry="4" fill="white" fill-opacity="0.4"/>
    <ellipse cx="12" cy="12" rx="1.5" ry="2" fill="#333" fill-opacity="0.4"/>
    <ellipse cx="20" cy="12" rx="3" ry="4" fill="white" fill-opacity="0.4"/>
    <ellipse cx="20" cy="12" rx="1.5" ry="2" fill="#333" fill-opacity="0.4"/>
  </g>
  
  <!-- Frame 3: Final mist -->
  <g id="death-frame3" transform="translate(64, 0)">
    <!-- Four-pixel-tall mist -->
    <ellipse cx="16" cy="26" rx="10" ry="2" fill="#4169E1" fill-opacity="0.3" />
    <ellipse cx="16" cy="26" rx="8" ry="1.5" fill="#6495ED" fill-opacity="0.2" />
  </g>
</svg>
