<?xml version="1.0" encoding="UTF-8" standalone="no"?>
<svg width="320" height="32" viewBox="0 0 320 32" xmlns="http://www.w3.org/2000/svg">
  <!-- Ghost color variations -->
  <!-- Each ghost is 32px wide, with 10 different colors -->
  
  <!-- Blue Ghost (Player) -->
  <g id="ghost-blue" transform="translate(0, 0)">
    <path d="M16,4 C10.5,4 6,8.5 6,14 L6,24 C6,24 8,22 10,24 C12,26 14,24 16,26 C18,24 20,26 22,24 C24,22 26,24 26,24 L26,14 C26,8.5 21.5,4 16,4 Z" 
          fill="#4169E1" stroke="#000" stroke-width="0.5"/>
    <path d="M10,6 C8,8 7,11 7,14 L7,23 C8,22.5 9,22.5 10,23 C10,23 10,14 12,10 C14,6 16,5 16,5 C16,5 12,4 10,6 Z" 
          fill="#6495ED" fill-opacity="0.5"/>
    <path d="M22,6 C24,8 25,11 25,14 L25,23 C24,22.5 23,22.5 22,23 C22,23 22,14 20,10 C18,6 16,5 16,5 C16,5 20,4 22,6 Z" 
          fill="#191970" fill-opacity="0.5"/>
    <ellipse cx="12" cy="12" rx="3" ry="4" fill="white"/>
    <ellipse cx="12" cy="12" rx="1.5" ry="2" fill="#333"/>
    <ellipse cx="20" cy="12" rx="3" ry="4" fill="white"/>
    <ellipse cx="20" cy="12" rx="1.5" ry="2" fill="#333"/>
    <text x="16" y="7" font-family="Arial" font-size="5" fill="white" text-anchor="middle">Lv 1</text>
  </g>
  
  <!-- Red Ghost -->
  <g id="ghost-red" transform="translate(32, 0)">
    <path d="M16,4 C10.5,4 6,8.5 6,14 L6,24 C6,24 8,22 10,24 C12,26 14,24 16,26 C18,24 20,26 22,24 C24,22 26,24 26,24 L26,14 C26,8.5 21.5,4 16,4 Z" 
          fill="#FF0000" stroke="#000" stroke-width="0.5"/>
    <path d="M10,6 C8,8 7,11 7,14 L7,23 C8,22.5 9,22.5 10,23 C10,23 10,14 12,10 C14,6 16,5 16,5 C16,5 12,4 10,6 Z" 
          fill="#FF6666" fill-opacity="0.5"/>
    <path d="M22,6 C24,8 25,11 25,14 L25,23 C24,22.5 23,22.5 22,23 C22,23 22,14 20,10 C18,6 16,5 16,5 C16,5 20,4 22,6 Z" 
          fill="#990000" fill-opacity="0.5"/>
    <ellipse cx="12" cy="12" rx="3" ry="4" fill="white"/>
    <ellipse cx="12" cy="12" rx="1.5" ry="2" fill="#333"/>
    <ellipse cx="20" cy="12" rx="3" ry="4" fill="white"/>
    <ellipse cx="20" cy="12" rx="1.5" ry="2" fill="#333"/>
    <text x="16" y="7" font-family="Arial" font-size="5" fill="white" text-anchor="middle">Lv 1</text>
  </g>
  
  <!-- Pink Ghost -->
  <g id="ghost-pink" transform="translate(64, 0)">
    <path d="M16,4 C10.5,4 6,8.5 6,14 L6,24 C6,24 8,22 10,24 C12,26 14,24 16,26 C18,24 20,26 22,24 C24,22 26,24 26,24 L26,14 C26,8.5 21.5,4 16,4 Z" 
          fill="#FFB6C1" stroke="#000" stroke-width="0.5"/>
    <path d="M10,6 C8,8 7,11 7,14 L7,23 C8,22.5 9,22.5 10,23 C10,23 10,14 12,10 C14,6 16,5 16,5 C16,5 12,4 10,6 Z" 
          fill="#FFC0CB" fill-opacity="0.5"/>
    <path d="M22,6 C24,8 25,11 25,14 L25,23 C24,22.5 23,22.5 22,23 C22,23 22,14 20,10 C18,6 16,5 16,5 C16,5 20,4 22,6 Z" 
          fill="#DB7093" fill-opacity="0.5"/>
    <ellipse cx="12" cy="12" rx="3" ry="4" fill="white"/>
    <ellipse cx="12" cy="12" rx="1.5" ry="2" fill="#333"/>
    <ellipse cx="20" cy="12" rx="3" ry="4" fill="white"/>
    <ellipse cx="20" cy="12" rx="1.5" ry="2" fill="#333"/>
    <text x="16" y="7" font-family="Arial" font-size="5" fill="navy" text-anchor="middle">Lv 1</text>
  </g>
  
  <!-- Orange Ghost -->
  <g id="ghost-orange" transform="translate(96, 0)">
    <path d="M16,4 C10.5,4 6,8.5 6,14 L6,24 C6,24 8,22 10,24 C12,26 14,24 16,26 C18,24 20,26 22,24 C24,22 26,24 26,24 L26,14 C26,8.5 21.5,4 16,4 Z" 
          fill="#FFA500" stroke="#000" stroke-width="0.5"/>
    <path d="M10,6 C8,8 7,11 7,14 L7,23 C8,22.5 9,22.5 10,23 C10,23 10,14 12,10 C14,6 16,5 16,5 C16,5 12,4 10,6 Z" 
          fill="#FFD700" fill-opacity="0.5"/>
    <path d="M22,6 C24,8 25,11 25,14 L25,23 C24,22.5 23,22.5 22,23 C22,23 22,14 20,10 C18,6 16,5 16,5 C16,5 20,4 22,6 Z" 
          fill="#CC7000" fill-opacity="0.5"/>
    <ellipse cx="12" cy="12" rx="3" ry="4" fill="white"/>
    <ellipse cx="12" cy="12" rx="1.5" ry="2" fill="#333"/>
    <ellipse cx="20" cy="12" rx="3" ry="4" fill="white"/>
    <ellipse cx="20" cy="12" rx="1.5" ry="2" fill="#333"/>
    <text x="16" y="7" font-family="Arial" font-size="5" fill="navy" text-anchor="middle">Lv 1</text>
  </g>
  
  <!-- Cyan Ghost -->
  <g id="ghost-cyan" transform="translate(128, 0)">
    <path d="M16,4 C10.5,4 6,8.5 6,14 L6,24 C6,24 8,22 10,24 C12,26 14,24 16,26 C18,24 20,26 22,24 C24,22 26,24 26,24 L26,14 C26,8.5 21.5,4 16,4 Z" 
          fill="#00FFFF" stroke="#000" stroke-width="0.5"/>
    <path d="M10,6 C8,8 7,11 7,14 L7,23 C8,22.5 9,22.5 10,23 C10,23 10,14 12,10 C14,6 16,5 16,5 C16,5 12,4 10,6 Z" 
          fill="#AFEEEE" fill-opacity="0.5"/>
    <path d="M22,6 C24,8 25,11 25,14 L25,23 C24,22.5 23,22.5 22,23 C22,23 22,14 20,10 C18,6 16,5 16,5 C16,5 20,4 22,6 Z" 
          fill="#008B8B" fill-opacity="0.5"/>
    <ellipse cx="12" cy="12" rx="3" ry="4" fill="white"/>
    <ellipse cx="12" cy="12" rx="1.5" ry="2" fill="#333"/>
    <ellipse cx="20" cy="12" rx="3" ry="4" fill="white"/>
    <ellipse cx="20" cy="12" rx="1.5" ry="2" fill="#333"/>
    <text x="16" y="7" font-family="Arial" font-size="5" fill="navy" text-anchor="middle">Lv 1</text>
  </g>
  
  <!-- Green Ghost -->
  <g id="ghost-green" transform="translate(160, 0)">
    <path d="M16,4 C10.5,4 6,8.5 6,14 L6,24 C6,24 8,22 10,24 C12,26 14,24 16,26 C18,24 20,26 22,24 C24,22 26,24 26,24 L26,14 C26,8.5 21.5,4 16,4 Z" 
          fill="#00FF00" stroke="#000" stroke-width="0.5"/>
    <path d="M10,6 C8,8 7,11 7,14 L7,23 C8,22.5 9,22.5 10,23 C10,23 10,14 12,10 C14,6 16,5 16,5 C16,5 12,4 10,6 Z" 
          fill="#90EE90" fill-opacity="0.5"/>
    <path d="M22,6 C24,8 25,11 25,14 L25,23 C24,22.5 23,22.5 22,23 C22,23 22,14 20,10 C18,6 16,5 16,5 C16,5 20,4 22,6 Z" 
          fill="#006400" fill-opacity="0.5"/>
    <ellipse cx="12" cy="12" rx="3" ry="4" fill="white"/>
    <ellipse cx="12" cy="12" rx="1.5" ry="2" fill="#333"/>
    <ellipse cx="20" cy="12" rx="3" ry="4" fill="white"/>
    <ellipse cx="20" cy="12" rx="1.5" ry="2" fill="#333"/>
    <text x="16" y="7" font-family="Arial" font-size="5" fill="navy" text-anchor="middle">Lv 1</text>
  </g>
  
  <!-- Yellow Ghost -->
  <g id="ghost-yellow" transform="translate(192, 0)">
    <path d="M16,4 C10.5,4 6,8.5 6,14 L6,24 C6,24 8,22 10,24 C12,26 14,24 16,26 C18,24 20,26 22,24 C24,22 26,24 26,24 L26,14 C26,8.5 21.5,4 16,4 Z" 
          fill="#FFFF00" stroke="#000" stroke-width="0.5"/>
    <path d="M10,6 C8,8 7,11 7,14 L7,23 C8,22.5 9,22.5 10,23 C10,23 10,14 12,10 C14,6 16,5 16,5 C16,5 12,4 10,6 Z" 
          fill="#FFFACD" fill-opacity="0.5"/>
    <path d="M22,6 C24,8 25,11 25,14 L25,23 C24,22.5 23,22.5 22,23 C22,23 22,14 20,10 C18,6 16,5 16,5 C16,5 20,4 22,6 Z" 
          fill="#B8860B" fill-opacity="0.5"/>
    <ellipse cx="12" cy="12" rx="3" ry="4" fill="white"/>
    <ellipse cx="12" cy="12" rx="1.5" ry="2" fill="#333"/>
    <ellipse cx="20" cy="12" rx="3" ry="4" fill="white"/>
    <ellipse cx="20" cy="12" rx="1.5" ry="2" fill="#333"/>
    <text x="16" y="7" font-family="Arial" font-size="5" fill="navy" text-anchor="middle">Lv 1</text>
  </g>
  
  <!-- Purple Ghost -->
  <g id="ghost-purple" transform="translate(224, 0)">
    <path d="M16,4 C10.5,4 6,8.5 6,14 L6,24 C6,24 8,22 10,24 C12,26 14,24 16,26 C18,24 20,26 22,24 C24,22 26,24 26,24 L26,14 C26,8.5 21.5,4 16,4 Z" 
          fill="#800080" stroke="#000" stroke-width="0.5"/>
    <path d="M10,6 C8,8 7,11 7,14 L7,23 C8,22.5 9,22.5 10,23 C10,23 10,14 12,10 C14,6 16,5 16,5 C16,5 12,4 10,6 Z" 
          fill="#BA55D3" fill-opacity="0.5"/>
    <path d="M22,6 C24,8 25,11 25,14 L25,23 C24,22.5 23,22.5 22,23 C22,23 22,14 20,10 C18,6 16,5 16,5 C16,5 20,4 22,6 Z" 
          fill="#4B0082" fill-opacity="0.5"/>
    <ellipse cx="12" cy="12" rx="3" ry="4" fill="white"/>
    <ellipse cx="12" cy="12" rx="1.5" ry="2" fill="#333"/>
    <ellipse cx="20" cy="12" rx="3" ry="4" fill="white"/>
    <ellipse cx="20" cy="12" rx="1.5" ry="2" fill="#333"/>
    <text x="16" y="7" font-family="Arial" font-size="5" fill="white" text-anchor="middle">Lv 1</text>
  </g>
  
  <!-- White Ghost -->
  <g id="ghost-white" transform="translate(256, 0)">
    <path d="M16,4 C10.5,4 6,8.5 6,14 L6,24 C6,24 8,22 10,24 C12,26 14,24 16,26 C18,24 20,26 22,24 C24,22 26,24 26,24 L26,14 C26,8.5 21.5,4 16,4 Z" 
          fill="#FFFFFF" stroke="#000" stroke-width="0.5"/>
    <path d="M10,6 C8,8 7,11 7,14 L7,23 C8,22.5 9,22.5 10,23 C10,23 10,14 12,10 C14,6 16,5 16,5 C16,5 12,4 10,6 Z" 
          fill="#F8F8FF" fill-opacity="0.5"/>
    <path d="M22,6 C24,8 25,11 25,14 L25,23 C24,22.5 23,22.5 22,23 C22,23 22,14 20,10 C18,6 16,5 16,5 C16,5 20,4 22,6 Z" 
          fill="#DCDCDC" fill-opacity="0.5"/>
    <ellipse cx="12" cy="12" rx="3" ry="4" fill="white"/>
    <ellipse cx="12" cy="12" rx="1.5" ry="2" fill="#333"/>
    <ellipse cx="20" cy="12" rx="3" ry="4" fill="white"/>
    <ellipse cx="20" cy="12" rx="1.5" ry="2" fill="#333"/>
    <text x="16" y="7" font-family="Arial" font-size="5" fill="navy" text-anchor="middle">Lv 1</text>
  </g>
  
  <!-- Death Animation Frame -->
  <g id="ghost-death" transform="translate(288, 0)">
    <path d="M16,4 C10.5,4 6,8.5 6,14 L6,24 C6,24 8,22 10,24 C12,26 14,24 16,26 C18,24 20,26 22,24 C24,22 26,24 26,24 L26,14 C26,8.5 21.5,4 16,4 Z" 
          fill="#4169E1" fill-opacity="0.5" stroke="#000" stroke-width="0.5" stroke-opacity="0.5"/>
    <ellipse cx="12" cy="12" rx="3" ry="4" fill="white" fill-opacity="0.5"/>
    <ellipse cx="12" cy="12" rx="1.5" ry="2" fill="#333" fill-opacity="0.5"/>
    <ellipse cx="20" cy="12" rx="3" ry="4" fill="white" fill-opacity="0.5"/>
    <ellipse cx="20" cy="12" rx="1.5" ry="2" fill="#333" fill-opacity="0.5"/>
  </g>
</svg>
